<?xml version="1.0" encoding="UTF-8"?>
<svg width="14" height="12" viewBox="0 0 14 12" fill="none" xmlns="http://www.w3.org/2000/svg">
<path fill-rule="evenodd" clip-rule="evenodd" d="M3 2.5C3 1.67157 3.67157 1 4.5 1H9.5C10.3284 1 11 1.67157 11 2.5V4H3V2.5ZM2 4V2.5C2 1.11929 3.11929 0 4.5 0H9.5C10.8807 0 12 1.11929 12 2.5V4H13C13.5523 4 14 4.44772 14 5V10.5C14 10.7761 13.7761 11 13.5 11C13.2239 11 13 10.7761 13 10.5V9H1V10.5C1 10.7761 0.776142 11 0.5 11C0.223858 11 0 10.7761 0 10.5V5C0 4.44772 0.447715 4 1 4H2ZM13 8V5H1V8H13Z" fill="#2E2E32"/>
</svg>