<?xml version="1.0" encoding="UTF-8"?>
<svg width="12" height="14" viewBox="0 0 12 14" fill="none" xmlns="http://www.w3.org/2000/svg">
<path d="M10.5 0.5C10.7761 0.5 11 0.723858 11 1V13C11 13.2761 10.7761 13.5 10.5 13.5C10.2239 13.5 10 13.2761 10 13V1C10 0.723858 10.2239 0.5 10.5 0.5Z" fill="#2E2E32"/>
<path fill-rule="evenodd" clip-rule="evenodd" d="M6.5 0.5C6.77614 0.5 7 0.723858 7 1V3.5C7 4.32843 6.32843 5 5.5 5H5V13C5 13.2761 4.77614 13.5 4.5 13.5C4.22386 13.5 4 13.2761 4 13V5H3.5C2.67157 5 2 4.32843 2 3.5V1C2 0.723858 2.22386 0.5 2.5 0.5C2.77614 0.5 3 0.723858 3 1V3.5C3 3.77614 3.22386 4 3.5 4H4V1C4 0.723858 4.22386 0.5 4.5 0.5C4.77614 0.5 5 0.723858 5 1V4H5.5C5.77614 4 6 3.77614 6 3.5V1C6 0.723858 6.22386 0.5 6.5 0.5Z" fill="#2E2E32"/>
</svg>