<svg width="20" height="20" viewBox="0 0 20 20" fill="none" xmlns="http://www.w3.org/2000/svg">
<path d="M15.8333 1.66667H4.16667C1.86917 1.66667 0 3.53584 0 5.83334V17.5C0 17.9608 0.373333 18.3333 0.833333 18.3333C1.29333 18.3333 1.66667 17.9608 1.66667 17.5V15.8333H18.3333V17.5C18.3333 17.9608 18.7058 18.3333 19.1667 18.3333C19.6275 18.3333 20 17.9608 20 17.5V5.83334C20 3.53584 18.1308 1.66667 15.8333 1.66667ZM4.16667 3.33334H15.8333C17.2117 3.33334 18.3333 4.45501 18.3333 5.83334V10.8333H16.6667C16.6667 8.99501 15.1717 7.50001 13.3333 7.50001H12.5C11.505 7.50001 10.6117 7.93834 10 8.63084C9.38833 7.93751 8.495 7.50001 7.5 7.50001H6.66667C4.82833 7.50001 3.33333 8.99501 3.33333 10.8333H1.66667V5.83334C1.66667 4.45501 2.78833 3.33334 4.16667 3.33334ZM10.8333 10.8333C10.8333 9.91417 11.5808 9.16667 12.5 9.16667H13.3333C14.2525 9.16667 15 9.91417 15 10.8333H10.8333ZM5 10.8333C5 9.91417 5.7475 9.16667 6.66667 9.16667H7.5C8.41917 9.16667 9.16667 9.91417 9.16667 10.8333H5ZM1.66667 14.1667V12.5H18.3333V14.1667H1.66667Z" fill="#FF621F"/>
</svg>
