<svg width="24" height="24" viewBox="0 0 24 24" fill="none" xmlns="http://www.w3.org/2000/svg">
<g clip-path="url(#clip0_568_1270)">
<path d="M3.86602 18.965C3.68002 19.285 3.34502 19.465 2.99902 19.465C2.82902 19.465 2.65702 19.422 2.49902 19.331C0.957023 18.439 -0.000976562 16.78 -0.000976562 15V7C2.34375e-05 4.243 2.24302 2 5.00002 2V1C5.00002 0.448 5.44802 0 6.00002 0C6.55202 0 7.00002 0.448 7.00002 1V2H14V1C14 0.448 14.447 0 15 0C15.553 0 16 0.448 16 1V2C18.757 2 21 4.243 21 7V15C21 15.552 20.553 16 20 16C19.447 16 19 15.552 19 15V9H18C17.447 9 17 8.552 17 8C17 7.448 17.447 7 18 7H19C19 5.346 17.654 4 16 4H5.00002C3.34602 4 2.00002 5.346 2.00002 7H10C10.552 7 11 7.448 11 8C11 8.552 10.552 9 10 9H2.00002V15C2.00002 16.068 2.57502 17.064 3.50002 17.599C3.97802 17.875 4.14302 18.487 3.86602 18.965ZM20.758 18.58L17.009 17.179V12.134C17.009 10.618 15.933 9.3 14.506 9.068C13.625 8.925 12.738 9.17 12.067 9.741C11.395 10.312 11.009 11.146 11.009 12.027V19.59L9.99402 18.782C9.98702 18.776 9.97802 18.776 9.97102 18.77C8.76002 17.717 6.92202 17.795 5.81802 18.977C4.68802 20.185 4.75202 22.087 5.94802 23.207L6.50602 23.745C6.69202 23.925 6.94102 24.025 7.20002 24.025C8.10002 24.025 8.54202 22.93 7.89402 22.305L7.32602 21.757C6.92302 21.379 6.90202 20.744 7.28002 20.341C7.65502 19.939 8.28802 19.92 8.69002 20.293C8.70002 20.302 11.387 22.444 11.387 22.444C11.688 22.684 12.1 22.729 12.444 22.563C12.79 22.396 13.01 22.046 13.01 21.662V12.024C13.01 11.73 13.139 11.452 13.363 11.261C13.591 11.068 13.881 10.988 14.185 11.038C14.648 11.114 15.01 11.594 15.01 12.131V17.87C15.01 18.287 15.269 18.661 15.66 18.807L20.059 20.451C21.163 20.863 21.925 21.889 22.002 23.063C22.037 23.592 22.477 23.998 22.999 23.998C23.021 23.998 23.043 23.998 23.065 23.996C23.616 23.959 24.034 23.483 23.998 22.933C23.869 20.975 22.598 19.266 20.758 18.58Z" fill="white"/>
</g>
<defs>
<clipPath id="clip0_568_1270">
<rect width="24" height="24" fill="white"/>
</clipPath>
</defs>
</svg>
