<svg width="21" height="20" viewBox="0 0 21 20" fill="none" xmlns="http://www.w3.org/2000/svg">
<g clip-path="url(#clip0_330_853)">
<path d="M10.4998 5C9.84057 5 9.1961 5.1955 8.64794 5.56177C8.09977 5.92804 7.67253 6.44863 7.42024 7.05772C7.16795 7.66681 7.10194 8.33703 7.23055 8.98363C7.35917 9.63024 7.67664 10.2242 8.14282 10.6904C8.60899 11.1565 9.20293 11.474 9.84954 11.6026C10.4961 11.7312 11.1664 11.6652 11.7755 11.4129C12.3845 11.1606 12.9051 10.7334 13.2714 10.1852C13.6377 9.63707 13.8332 8.9926 13.8332 8.33333C13.8332 7.44928 13.482 6.60143 12.8569 5.97631C12.2317 5.35119 11.3839 5 10.4998 5ZM10.4998 10C10.1702 10 9.84797 9.90225 9.57389 9.71912C9.29981 9.53598 9.08619 9.27568 8.96004 8.97114C8.83389 8.6666 8.80089 8.33148 8.8652 8.00818C8.92951 7.68488 9.08824 7.38791 9.32133 7.15482C9.55442 6.92173 9.85139 6.763 10.1747 6.69869C10.498 6.63438 10.8331 6.66739 11.1376 6.79353C11.4422 6.91968 11.7025 7.1333 11.8856 7.40738C12.0688 7.68146 12.1665 8.0037 12.1665 8.33333C12.1665 8.77536 11.9909 9.19928 11.6783 9.51184C11.3658 9.8244 10.9419 10 10.4998 10Z" fill="#FF621F"/>
<path d="M10.4998 20C9.79806 20.0036 9.1057 19.839 8.48066 19.52C7.85562 19.201 7.3161 18.737 6.90727 18.1666C3.73144 13.7858 2.12061 10.4925 2.12061 8.37746C2.12061 6.15517 3.00341 4.02389 4.57481 2.45249C6.14621 0.881094 8.27748 -0.00170898 10.4998 -0.00170898C12.7221 -0.00170898 14.8533 0.881094 16.4247 2.45249C17.9961 4.02389 18.8789 6.15517 18.8789 8.37746C18.8789 10.4925 17.2681 13.7858 14.0923 18.1666C13.6834 18.737 13.1439 19.201 12.5189 19.52C11.8938 19.839 11.2015 20.0036 10.4998 20ZM10.4998 1.81746C8.76012 1.81944 7.09229 2.5114 5.86217 3.74152C4.63204 4.97164 3.94009 6.63947 3.93811 8.37912C3.93811 10.0541 5.51561 13.1516 8.37894 17.1008C8.62202 17.4356 8.94091 17.7081 9.30953 17.896C9.67815 18.0839 10.086 18.1819 10.4998 18.1819C10.9135 18.1819 11.3214 18.0839 11.69 17.896C12.0586 17.7081 12.3775 17.4356 12.6206 17.1008C15.4839 13.1516 17.0614 10.0541 17.0614 8.37912C17.0595 6.63947 16.3675 4.97164 15.1374 3.74152C13.9073 2.5114 12.2394 1.81944 10.4998 1.81746Z" fill="#FF621F"/>
</g>
<defs>
<clipPath id="clip0_330_853">
<rect width="20" height="20" fill="white" transform="translate(0.5)"/>
</clipPath>
</defs>
</svg>
