<svg width="21" height="20" viewBox="0 0 21 20" fill="none" xmlns="http://www.w3.org/2000/svg">
<g clip-path="url(#clip0_330_982)">
<path d="M10.5077 19.9999C9.10738 19.9916 7.72421 19.6908 6.44684 19.1168C5.16946 18.5429 4.02604 17.7085 3.08982 16.6671C2.1536 15.6257 1.44521 14.4002 1.01005 13.0691C0.574882 11.7381 0.422526 10.3308 0.562741 8.93745C0.811883 6.7617 1.76139 4.72586 3.2682 3.13668C4.77501 1.54751 6.75749 0.491093 8.91691 0.126615C10.312 -0.0898286 11.7359 -0.0315131 13.1086 0.298282C13.47 0.391053 13.7999 0.579203 14.0638 0.84307C14.3277 1.10694 14.5158 1.43683 14.6086 1.79828C14.702 2.15645 14.6972 2.53319 14.5945 2.88883C14.4919 3.24448 14.2952 3.56585 14.0252 3.81912C10.2261 7.29245 10.5544 12.6899 14.6977 15.8291C14.9904 16.059 15.2162 16.3632 15.3515 16.7099C15.4868 17.0566 15.5268 17.4333 15.4672 17.8007C15.4077 18.1681 15.2508 18.5128 15.0129 18.7991C14.775 19.0853 14.4647 19.3026 14.1144 19.4283C12.9501 19.8087 11.7327 20.0016 10.5077 19.9999ZM10.5694 1.66662C10.1021 1.66552 9.63539 1.7009 9.17357 1.77245C7.3769 2.07727 5.72769 2.957 4.47381 4.2794C3.21993 5.6018 2.42913 7.29544 2.22024 9.10578C2.0903 10.2725 2.21013 11.4535 2.57177 12.5703C2.93341 13.6871 3.52858 14.7142 4.31774 15.5833C5.47253 16.8173 6.96079 17.6896 8.60179 18.094C10.2428 18.4984 11.9659 18.4177 13.5619 17.8616C13.6305 17.8357 13.6909 17.7921 13.7373 17.7354C13.7836 17.6786 13.8142 17.6106 13.8258 17.5382C13.8375 17.4659 13.8299 17.3917 13.8037 17.3233C13.7776 17.2548 13.7338 17.1944 13.6769 17.1483C8.73607 13.4166 8.34774 6.73912 12.8877 2.60328C12.9396 2.55486 12.9769 2.49297 12.9956 2.42454C13.0143 2.35611 13.0136 2.28383 12.9936 2.21578C12.9763 2.14324 12.9395 2.07679 12.8873 2.02363C12.835 1.97046 12.7692 1.93259 12.6969 1.91412C12.0003 1.74627 11.286 1.66317 10.5694 1.66662ZM17.5836 9.99995C17.3978 9.99994 17.2174 9.93786 17.0709 9.82357C16.9244 9.70928 16.8204 9.54932 16.7752 9.36912L16.4769 8.17745L15.2836 7.85662C15.1041 7.80831 14.9459 7.70139 14.8342 7.55286C14.7225 7.40433 14.6636 7.22272 14.667 7.0369C14.6703 6.85107 14.7357 6.6717 14.8527 6.5273C14.9697 6.3829 15.1316 6.28175 15.3127 6.23995L16.4794 5.96912L16.7719 4.79745C16.8171 4.61726 16.9211 4.45733 17.0676 4.34305C17.214 4.22877 17.3945 4.1667 17.5802 4.1667C17.766 4.1667 17.9464 4.22877 18.0929 4.34305C18.2393 4.45733 18.3434 4.61726 18.3886 4.79745L18.6844 5.97912L19.8661 6.27495C20.0463 6.32011 20.2062 6.42418 20.3205 6.57063C20.4348 6.71708 20.4968 6.89752 20.4968 7.08328C20.4968 7.26904 20.4348 7.44948 20.3205 7.59593C20.2062 7.74239 20.0463 7.84646 19.8661 7.89162L18.6844 8.18745L18.3886 9.36912C18.3436 9.54877 18.24 9.70831 18.0942 9.82255C17.9485 9.93678 17.7688 9.9992 17.5836 9.99995ZM13.8336 11.6666C13.8336 11.8876 13.9214 12.0996 14.0777 12.2559C14.2339 12.4122 14.4459 12.4999 14.6669 12.4999C14.8879 12.4999 15.0999 12.4122 15.2562 12.2559C15.4124 12.0996 15.5002 11.8876 15.5002 11.6666C15.5002 11.4456 15.4124 11.2336 15.2562 11.0774C15.0999 10.9211 14.8879 10.8333 14.6669 10.8333C14.4459 10.8333 14.2339 10.9211 14.0777 11.0774C13.9214 11.2336 13.8336 11.4456 13.8336 11.6666ZM18.8336 14.9999C18.8336 15.221 18.9214 15.4329 19.0777 15.5892C19.2339 15.7455 19.4459 15.8333 19.6669 15.8333C19.8879 15.8333 20.0999 15.7455 20.2562 15.5892C20.4124 15.4329 20.5002 15.221 20.5002 14.9999C20.5002 14.7789 20.4124 14.567 20.2562 14.4107C20.0999 14.2544 19.8879 14.1666 19.6669 14.1666C19.4459 14.1666 19.2339 14.2544 19.0777 14.4107C18.9214 14.567 18.8336 14.7789 18.8336 14.9999Z" fill="#FF621F"/>
</g>
<defs>
<clipPath id="clip0_330_982">
<rect width="20" height="20" fill="white" transform="translate(0.5)"/>
</clipPath>
</defs>
</svg>
