<svg width="21" height="20" viewBox="0 0 21 20" fill="none" xmlns="http://www.w3.org/2000/svg">
<g clip-path="url(#clip0_330_484)">
<path d="M8.61023 13.2867C8.69607 13.98 8.4894 14.6833 8.03023 15.2667L7.58023 15.9167C7.31773 16.2942 6.79857 16.3883 6.42023 16.125C6.0419 15.8625 5.9494 15.3433 6.2119 14.9642L6.69107 14.275C6.90523 14 6.9869 13.7425 6.95607 13.49C6.92357 13.2283 6.77523 12.9875 6.5269 12.795L5.9344 12.2983C5.4744 11.9425 4.77023 12.0283 4.38857 12.5083L2.41107 14.995C2.02773 15.4783 2.09773 16.1658 2.57107 16.5617L3.42607 17.2283C3.73107 16.8858 4.17107 16.6658 4.66607 16.6658C5.5869 16.6658 6.33273 17.4117 6.33273 18.3325C6.33273 19.2533 5.5869 19.9992 4.66607 19.9992C4.06773 19.9992 3.5469 19.6808 3.25273 19.2067L1.5244 17.8575C0.328566 16.8608 0.1544 15.155 1.10607 13.9575L3.08357 11.4708C4.03107 10.2783 5.77857 10.0683 6.98107 11.0017L7.57273 11.4983C8.14607 11.9417 8.52357 12.5842 8.6094 13.2867H8.61023ZM15.0836 4.16667C16.2344 4.16667 17.1669 3.23417 17.1669 2.08333C17.1669 0.9325 16.2344 0 15.0836 0C13.9327 0 13.0002 0.9325 13.0002 2.08333C13.0002 3.23417 13.9327 4.16667 15.0836 4.16667ZM20.0394 19.9125C19.9194 19.9717 19.7927 20 19.6677 20C19.3619 20 19.0677 19.8317 18.9211 19.5392L17.3661 16.4292L13.1969 14.0133C12.0844 13.2725 11.5169 11.9908 11.7061 10.7208L12.1827 8.19667L9.9369 11.0492C9.65273 11.4125 9.12857 11.4725 8.7669 11.1892C8.40523 10.9042 8.34273 10.38 8.62773 10.0192L11.5952 6.24917C12.2369 5.45333 13.1827 5.00083 14.1961 5.00083H14.7236C15.4461 5.00083 16.1319 5.3125 16.6069 5.85667C17.0819 6.40083 17.2977 7.12333 17.2002 7.83917L17.0627 8.79917L20.0811 10.5275C20.4802 10.7558 20.6186 11.2658 20.3902 11.665C20.2361 11.9333 19.9552 12.0842 19.6661 12.0842C19.5261 12.0842 19.3836 12.0492 19.2527 11.9742L16.8077 10.5742L16.3302 13.9033L18.2019 14.9875C18.4852 15.1525 18.7111 15.3933 18.8569 15.6842L20.4119 18.7942C20.6177 19.2058 20.4511 19.7067 20.0394 19.9125ZM14.0777 12.5992L14.7761 13.0033L15.5494 7.6075C15.5819 7.37083 15.5119 7.13667 15.3511 6.9525C15.1902 6.76833 14.9677 6.66667 14.7236 6.66667H14.1961C14.1861 6.66667 14.1769 6.67 14.1669 6.67L13.3502 10.9975C13.2611 11.6017 13.5444 12.2425 14.0786 12.5983L14.0777 12.5992ZM12.6019 14.9192C12.1461 14.8483 11.7177 15.1492 11.6419 15.6025L11.0494 19.1292C10.9736 19.5833 11.2794 20.0133 11.7336 20.0892C11.7802 20.0967 11.8269 20.1008 11.8727 20.1008C12.2719 20.1008 12.6252 19.8125 12.6936 19.4058L13.2861 15.8792C13.3619 15.425 13.0561 14.995 12.6019 14.9192Z" fill="#2E2E32"/>
</g>
<defs>
<clipPath id="clip0_330_484">
<rect width="20" height="20" fill="white" transform="translate(0.5)"/>
</clipPath>
</defs>
</svg>