<svg width="21" height="20" viewBox="0 0 21 20" fill="none" xmlns="http://www.w3.org/2000/svg">
<g clip-path="url(#clip0_330_1843)">
<path d="M1.38917 12.8425L3.11833 14.0733C4.00333 14.7025 5.04917 15.0233 6.095 15.0233C6.83917 15.0233 7.58417 14.8608 8.27167 14.5316L19.0658 9.78329C20.3042 9.19162 20.8433 7.69662 20.2667 6.44995C19.6883 5.20245 18.2042 4.65662 16.9533 5.22912L14.3342 6.39745L8.81833 2.99245C8.08333 2.44579 7.11 2.34745 6.275 2.73329L5.62417 3.03829C5.115 3.27745 4.76333 3.75245 4.68333 4.30912C4.60333 4.86662 4.80667 5.42162 5.22833 5.79495L8.73167 8.89495L5.73917 10.23L3.19167 9.29495C2.37167 8.99579 1.455 9.26079 0.9125 9.95412C0.585833 10.3716 0.449167 10.8975 0.5275 11.4341C0.61 11.9983 0.923333 12.5108 1.38833 12.8408L1.38917 12.8425ZM6.33333 4.54745L6.98 4.24412C7.25667 4.11579 7.58083 4.14995 7.88417 4.36995L12.4933 7.21829L10.405 8.14995L6.33333 4.54745ZM2.22583 10.9825C2.3075 10.8783 2.4125 10.8416 2.50417 10.8416C2.54583 10.8416 5.4825 11.9125 5.4825 11.9125C5.68667 11.9875 5.91167 11.98 6.10917 11.8916L17.6367 6.74912L17.6475 6.74412C18.065 6.55162 18.5608 6.73412 18.7542 7.14995C18.9492 7.57245 18.7675 8.07829 18.3708 8.26829L7.57667 13.0166C6.44583 13.5558 5.10667 13.4416 4.08417 12.715L2.355 11.485C2.26 11.4175 2.19417 11.3091 2.1775 11.195C2.165 11.11 2.18167 11.0391 2.22583 10.9825ZM20.5 19.1666C20.5 19.6275 20.1267 20 19.6667 20H1.33333C0.873333 20 0.5 19.6275 0.5 19.1666C0.5 18.7058 0.873333 18.3333 1.33333 18.3333H19.6667C20.1267 18.3333 20.5 18.7058 20.5 19.1666Z" fill="#FF621F"/>
</g>
<defs>
<clipPath id="clip0_330_1843">
<rect width="20" height="20" fill="white" transform="translate(0.5)"/>
</clipPath>
</defs>
</svg>
