<svg width="16" height="16" viewBox="0 0 16 16" fill="none" xmlns="http://www.w3.org/2000/svg">
<g clip-path="url(#clip0_362_1330)">
<path d="M15.8908 5.86266C15.7544 5.42859 15.482 5.04993 15.1138 4.78268C14.7455 4.51543 14.3011 4.37377 13.8461 4.37866H10.9335L10.0488 1.62132C9.90968 1.1873 9.63631 0.808666 9.26811 0.540033C8.89991 0.271401 8.45591 0.126648 8.00013 0.126648C7.54435 0.126648 7.10035 0.271401 6.73215 0.540033C6.36395 0.808666 6.09058 1.1873 5.95146 1.62132L5.06679 4.37866H2.15413C1.70062 4.3793 1.25892 4.52325 0.892115 4.78993C0.525307 5.05661 0.252156 5.43238 0.111676 5.86358C-0.0288034 6.29478 -0.0294251 6.75934 0.1099 7.19092C0.249224 7.62249 0.521369 7.999 0.887462 8.26666L3.25813 9.99999L2.3568 12.7913C2.21114 13.2242 2.20929 13.6927 2.35153 14.1267C2.49378 14.5608 2.77249 14.9372 3.14613 15.2C3.51336 15.4712 3.95839 15.6165 4.4149 15.6142C4.8714 15.6119 5.31496 15.4622 5.67946 15.1873L8.00013 13.4793L10.3215 15.1853C10.688 15.455 11.1307 15.6014 11.5857 15.6036C12.0408 15.6058 12.4848 15.4637 12.854 15.1977C13.2232 14.9316 13.4985 14.5554 13.6403 14.123C13.7822 13.6906 13.7833 13.2244 13.6435 12.7913L12.7421 9.99999L15.1155 8.26666C15.4857 8.00235 15.7611 7.62585 15.9007 7.19289C16.0404 6.75992 16.0369 6.29349 15.8908 5.86266ZM14.3288 7.18999L11.5661 9.20932C11.4527 9.2921 11.3682 9.40861 11.3249 9.54221C11.2815 9.67582 11.2815 9.8197 11.3248 9.95332L12.3748 13.2C12.4279 13.3647 12.4275 13.5419 12.3735 13.7063C12.3195 13.8707 12.2148 14.0138 12.0744 14.1149C11.934 14.216 11.7652 14.27 11.5921 14.2692C11.4191 14.2683 11.2508 14.2126 11.1115 14.11L8.39479 12.11C8.28037 12.0259 8.1421 11.9806 8.00013 11.9806C7.85815 11.9806 7.71988 12.0259 7.60546 12.11L4.88879 14.11C4.74952 14.2139 4.58075 14.2708 4.40697 14.2724C4.23319 14.274 4.06342 14.2202 3.92228 14.1188C3.78114 14.0174 3.67596 13.8736 3.62199 13.7084C3.56802 13.5433 3.56807 13.3652 3.62213 13.2L4.67546 9.95332C4.71874 9.8197 4.71871 9.67582 4.67537 9.54221C4.63203 9.40861 4.5476 9.2921 4.43413 9.20932L1.67146 7.18999C1.53233 7.08812 1.42895 6.94489 1.37609 6.78075C1.32323 6.61662 1.32359 6.43997 1.37712 6.27606C1.43065 6.11214 1.53461 5.96933 1.67416 5.86802C1.8137 5.76672 1.98169 5.71211 2.15413 5.71199H5.55413C5.69527 5.71199 5.83277 5.66718 5.94683 5.58404C6.06088 5.5009 6.1456 5.3837 6.18879 5.24932L7.22213 2.02866C7.27517 1.86385 7.37914 1.72012 7.51906 1.61816C7.65899 1.51619 7.82766 1.46126 8.00079 1.46126C8.17393 1.46126 8.3426 1.51619 8.48253 1.61816C8.62245 1.72012 8.72642 1.86385 8.77946 2.02866L9.81279 5.24932C9.85598 5.3837 9.94071 5.5009 10.0548 5.58404C10.1688 5.66718 10.3063 5.71199 10.4475 5.71199H13.8475C14.0199 5.71211 14.1879 5.76672 14.3274 5.86802C14.467 5.96933 14.5709 6.11214 14.6245 6.27606C14.678 6.43997 14.6784 6.61662 14.6255 6.78075C14.5726 6.94489 14.4693 7.08812 14.3301 7.18999H14.3288Z" fill="#FDDEC2"/>
</g>
<defs>
<clipPath id="clip0_362_1330">
<rect width="16" height="16" fill="white"/>
</clipPath>
</defs>
</svg>
