<svg width="21" height="20" viewBox="0 0 21 20" fill="none" xmlns="http://www.w3.org/2000/svg">
<g clip-path="url(#clip0_330_361)">
<path d="M20.3635 7.32834C20.193 6.78575 19.8525 6.31243 19.3922 5.97836C18.9319 5.6443 18.3764 5.46723 17.8077 5.47334H14.1668L13.061 2.02667C12.8871 1.48413 12.5454 1.01085 12.0851 0.675057C11.6249 0.339267 11.0699 0.158325 10.5002 0.158325C9.93044 0.158325 9.37543 0.339267 8.91519 0.675057C8.45494 1.01085 8.11323 1.48413 7.93933 2.02667L6.83349 5.47334H3.19266C2.62578 5.47414 2.07365 5.65407 1.61514 5.98742C1.15663 6.32077 0.815195 6.79049 0.639595 7.32949C0.463996 7.86849 0.463219 8.44919 0.637375 8.98866C0.811531 9.52813 1.15171 9.99876 1.60933 10.3333L4.57266 12.5L3.44599 15.9892C3.26392 16.5303 3.26161 17.1158 3.43942 17.6584C3.61722 18.201 3.96562 18.6716 4.43266 19C4.8917 19.339 5.44799 19.5206 6.01862 19.5177C6.58926 19.5149 7.1437 19.3277 7.59933 18.9842L10.5002 16.8492L13.4018 18.9817C13.86 19.3187 14.4133 19.5018 14.9821 19.5046C15.5509 19.5073 16.106 19.3297 16.5675 18.9971C17.0289 18.6645 17.3731 18.1942 17.5504 17.6537C17.7277 17.1133 17.7291 16.5305 17.5543 15.9892L16.4277 12.5L19.3943 10.3333C19.8572 10.003 20.2013 9.53233 20.3759 8.99112C20.5504 8.44991 20.5461 7.86688 20.3635 7.32834ZM18.411 8.9875L14.9577 11.5117C14.8158 11.6151 14.7103 11.7608 14.6561 11.9278C14.6019 12.0948 14.6019 12.2746 14.656 12.4417L15.9685 16.5C16.0349 16.7058 16.0343 16.9274 15.9669 17.1329C15.8994 17.3384 15.7685 17.5172 15.593 17.6436C15.4175 17.7701 15.2065 17.8376 14.9902 17.8365C14.7739 17.8354 14.5635 17.7657 14.3893 17.6375L10.9935 15.1375C10.8505 15.0324 10.6776 14.9758 10.5002 14.9758C10.3227 14.9758 10.1499 15.0324 10.0068 15.1375L6.61099 17.6375C6.4369 17.7674 6.22594 17.8385 6.00871 17.8405C5.79149 17.8425 5.57928 17.7752 5.40285 17.6485C5.22643 17.5217 5.09495 17.3421 5.02749 17.1356C4.96003 16.9291 4.96009 16.7065 5.02766 16.5L6.34433 12.4417C6.39842 12.2746 6.39838 12.0948 6.34421 11.9278C6.29004 11.7608 6.1845 11.6151 6.04266 11.5117L2.58933 8.9875C2.41541 8.86017 2.28619 8.68113 2.22011 8.47596C2.15403 8.27079 2.15448 8.04998 2.2214 7.84508C2.28831 7.64019 2.41826 7.46167 2.5927 7.33505C2.76713 7.20842 2.97711 7.14015 3.19266 7.14H7.44266C7.61909 7.14 7.79097 7.084 7.93353 6.98007C8.0761 6.87613 8.18201 6.72964 8.23599 6.56167L9.52766 2.53584C9.59396 2.32982 9.72392 2.15016 9.89883 2.02271C10.0737 1.89526 10.2846 1.82659 10.501 1.82659C10.7174 1.82659 10.9282 1.89526 11.1032 2.02271C11.2781 2.15016 11.408 2.32982 11.4743 2.53584L12.766 6.56167C12.82 6.72964 12.9259 6.87613 13.0685 6.98007C13.211 7.084 13.3829 7.14 13.5593 7.14H17.8093C18.0249 7.14015 18.2349 7.20842 18.4093 7.33505C18.5837 7.46167 18.7137 7.64019 18.7806 7.84508C18.8475 8.04998 18.848 8.27079 18.7819 8.47596C18.7158 8.68113 18.5866 8.86017 18.4127 8.9875H18.411Z" fill="#FF621F"/>
</g>
<defs>
<clipPath id="clip0_330_361">
<rect width="20" height="20" fill="white" transform="translate(0.5)"/>
</clipPath>
</defs>
</svg>
