<svg width="16" height="16" viewBox="0 0 16 16" fill="none" xmlns="http://www.w3.org/2000/svg">
<g clip-path="url(#clip0_330_4431)">
<path d="M15.9416 6.05465C15.7828 5.57824 15.3064 5.26063 14.83 5.26063H10.7804C10.6216 5.26063 10.4627 5.18123 10.3834 5.0224L9.11288 1.21102C8.95409 0.73461 8.47764 0.416992 8.00123 0.416992C7.52482 0.416992 7.04838 0.73461 6.88959 1.21102L5.61912 4.94301C5.53972 5.1018 5.38089 5.18123 5.2221 5.18123H1.1725C0.616655 5.18123 0.219641 5.49885 0.060849 5.97526C-0.0979429 6.45167 0.0608491 7.00751 0.457863 7.32513L3.71341 9.70725C3.8722 9.78664 3.8722 10.0249 3.8722 10.1837L2.60176 13.995C2.44297 14.4714 2.60176 15.0273 2.99877 15.3449C3.39579 15.6625 3.95163 15.6625 4.42804 15.3449L7.68358 12.9628C7.84237 12.8834 8.0012 12.8834 8.15999 12.9628L11.4155 15.3449C11.6538 15.5037 11.8919 15.5831 12.1302 15.5831C12.3684 15.5831 12.6066 15.5037 12.8448 15.3449C13.2418 15.0273 13.4006 14.5509 13.2418 13.995L11.9713 10.1837C11.8919 10.0249 11.9713 9.86604 12.1301 9.70725L15.3857 7.32513C15.9416 7.0869 16.1004 6.53106 15.9416 6.05465Z" fill="#FF621F"/>
</g>
<defs>
<clipPath id="clip0_330_4431">
<rect width="16" height="16" fill="white"/>
</clipPath>
</defs>
</svg>
