<svg width="14" height="14" viewBox="0 0 14 14" fill="none" xmlns="http://www.w3.org/2000/svg">
<path d="M6.99984 0.583333V4.08333C6.99899 4.75545 6.76645 5.40673 6.34142 5.9274C5.91639 6.44806 5.32485 6.80628 4.6665 6.94167V13.4167C4.6665 13.5714 4.60505 13.7197 4.49565 13.8291C4.38625 13.9385 4.23788 14 4.08317 14C3.92846 14 3.78009 13.9385 3.67069 13.8291C3.5613 13.7197 3.49984 13.5714 3.49984 13.4167V6.94167C2.84149 6.80628 2.24996 6.44806 1.82492 5.9274C1.39989 5.40673 1.16735 4.75545 1.1665 4.08333V0.583333C1.1665 0.428624 1.22796 0.280251 1.33736 0.170854C1.44675 0.0614582 1.59513 0 1.74984 0C1.90455 0 2.05292 0.0614582 2.16232 0.170854C2.27171 0.280251 2.33317 0.428624 2.33317 0.583333V4.08333C2.33467 4.44398 2.44755 4.79537 2.65639 5.08941C2.86522 5.38345 3.15981 5.60578 3.49984 5.726V0.583333C3.49984 0.428624 3.5613 0.280251 3.67069 0.170854C3.78009 0.0614582 3.92846 0 4.08317 0C4.23788 0 4.38625 0.0614582 4.49565 0.170854C4.60505 0.280251 4.6665 0.428624 4.6665 0.583333V5.726C5.00653 5.60578 5.30112 5.38345 5.50995 5.08941C5.71879 4.79537 5.83168 4.44398 5.83317 4.08333V0.583333C5.83317 0.428624 5.89463 0.280251 6.00403 0.170854C6.11342 0.0614582 6.26179 0 6.4165 0C6.57121 0 6.71959 0.0614582 6.82898 0.170854C6.93838 0.280251 6.99984 0.428624 6.99984 0.583333ZM12.8332 5.83333C12.8071 6.94193 12.5313 8.03036 12.0263 9.0176C11.5213 10.0048 10.8002 10.8655 9.9165 11.5354V13.4167C9.9165 13.5714 9.85505 13.7197 9.74565 13.8291C9.63625 13.9385 9.48788 14 9.33317 14C9.17846 14 9.03009 13.9385 8.92069 13.8291C8.8113 13.7197 8.74984 13.5714 8.74984 13.4167V1.16667C8.74461 0.947487 8.8045 0.731679 8.92193 0.546542C9.03937 0.361405 9.20908 0.215256 9.40959 0.126583C9.63991 0.0328797 9.89255 0.00830093 10.1366 0.0558508C10.3807 0.103401 10.6056 0.22102 10.7839 0.394333C12.1369 1.87889 12.8702 3.82509 12.8332 5.83333ZM11.6665 5.83333C11.6831 4.12542 11.0586 2.47338 9.9165 1.20342V9.9575C11.0097 8.8598 11.6367 7.38226 11.6665 5.83333Z" fill="#2E2E32"/>
</svg>
