<svg width="20" height="20" viewBox="0 0 20 20" fill="none" xmlns="http://www.w3.org/2000/svg">
<path d="M20 9.58335C19.9995 9.00866 19.8293 8.44691 19.5107 7.96863C19.1921 7.49035 18.7393 7.11684 18.2091 6.89501C17.8708 4.96365 16.8622 3.21344 15.3609 1.95224C13.8596 0.69104 11.9616 -0.000366211 10.0008 -0.000366211C8.04001 -0.000366211 6.14203 0.69104 4.64068 1.95224C3.13934 3.21344 2.1308 4.96365 1.79246 6.89501C1.18746 7.14954 0.685999 7.60069 0.369162 8.17552C0.0523256 8.75034 -0.0613636 9.41523 0.0464786 10.0627C0.154321 10.7101 0.47739 11.3022 0.963444 11.7433C1.4495 12.1844 2.07012 12.4487 2.72496 12.4933C3.15536 13.4067 3.73909 14.2396 4.45079 14.9558C3.40795 16.0945 2.74612 17.53 2.55746 19.0625C2.5438 19.1711 2.55168 19.2814 2.58065 19.387C2.60961 19.4925 2.65909 19.5914 2.72627 19.6778C2.79344 19.7642 2.87699 19.8366 2.97213 19.8907C3.06728 19.9449 3.17216 19.9798 3.28079 19.9933C3.31508 19.9975 3.34958 19.9998 3.38412 20C3.58693 19.9998 3.78269 19.9256 3.93472 19.7914C4.08675 19.6571 4.18461 19.4721 4.20996 19.2708C4.36104 18.0626 4.89047 16.9332 5.72246 16.0442C6.96341 16.9602 8.45787 17.4688 9.99996 17.5C11.5375 17.4685 13.0276 16.962 14.2658 16.05C15.0942 16.9375 15.6214 18.0637 15.7725 19.2683C15.7976 19.4697 15.8954 19.655 16.0474 19.7894C16.1995 19.9238 16.3954 19.9981 16.5983 19.9983C16.6331 19.9982 16.6679 19.9959 16.7025 19.9917C16.9217 19.9642 17.121 19.8508 17.2567 19.6764C17.3923 19.502 17.4531 19.2809 17.4258 19.0617C17.2385 17.5331 16.5799 16.1007 15.5416 14.9633C16.2573 14.2449 16.8441 13.4089 17.2766 12.4917C18.0147 12.4426 18.7067 12.115 19.2123 11.575C19.7179 11.035 19.9995 10.3231 20 9.58335ZM16.8733 10.8108C16.6789 10.7752 16.4782 10.8104 16.3075 10.9099C16.1368 11.0094 16.0073 11.1667 15.9425 11.3533C15.1791 13.5183 12.6083 15.8333 9.99996 15.8333C7.39162 15.8333 4.82079 13.5167 4.05746 11.3517C3.99249 11.1651 3.86298 11.0079 3.69229 10.9084C3.5216 10.8089 3.32098 10.7737 3.12662 10.8092C3.05737 10.8228 2.98715 10.8308 2.91662 10.8333C2.60728 10.8297 2.3103 10.7114 2.08311 10.5014C1.85592 10.2914 1.71468 10.0046 1.68669 9.69653C1.6587 9.38843 1.74595 9.0809 1.93158 8.83341C2.1172 8.58593 2.38801 8.41606 2.69162 8.35668C2.8688 8.32456 3.03081 8.23592 3.1534 8.10402C3.27598 7.97212 3.35254 7.80407 3.37162 7.62501C3.48292 6.55944 3.85063 5.53667 4.44331 4.64417C5.03599 3.75166 5.83601 3.01597 6.77496 2.50001C6.63851 3.0301 6.63222 3.58531 6.75662 4.11835C6.92605 4.82326 7.32067 5.45372 7.88068 5.91415C8.44068 6.37459 9.13553 6.63989 9.8599 6.66986C10.5843 6.69982 11.2987 6.4928 11.8948 6.08019C12.4909 5.66757 12.9362 5.07186 13.1633 4.38335C13.2003 4.26104 13.208 4.13173 13.1858 4.00589C13.1636 3.88005 13.112 3.7612 13.0354 3.65897C12.9587 3.55674 12.859 3.47399 12.7445 3.41742C12.6299 3.36086 12.5036 3.33205 12.3758 3.33335H12.25C12.0967 3.33837 11.949 3.39203 11.8282 3.48656C11.7075 3.58109 11.62 3.7116 11.5783 3.85918C11.4814 4.15052 11.306 4.40945 11.0713 4.60739C10.8366 4.80533 10.5518 4.9346 10.2483 4.98093C9.94474 5.02726 9.63433 4.98885 9.35127 4.86994C9.06821 4.75104 8.82349 4.55625 8.64411 4.30708C8.46474 4.0579 8.35768 3.76402 8.33474 3.45786C8.3118 3.15169 8.37388 2.84514 8.51413 2.57202C8.65438 2.2989 8.86734 2.06983 9.12953 1.91007C9.39171 1.75032 9.69293 1.66609 9.99996 1.66668C11.6465 1.66274 13.2359 2.26993 14.4604 3.37067C15.6849 4.47141 16.4574 5.98738 16.6283 7.62501C16.6474 7.80407 16.7239 7.97212 16.8465 8.10402C16.9691 8.23592 17.1311 8.32456 17.3083 8.35668C17.6119 8.41606 17.8827 8.58593 18.0683 8.83341C18.254 9.0809 18.3412 9.38843 18.3132 9.69653C18.2852 10.0046 18.144 10.2914 17.9168 10.5014C17.6896 10.7114 17.3926 10.8297 17.0833 10.8333C17.0128 10.8314 16.9426 10.8239 16.8733 10.8108Z" fill="#FF621F"/>
</svg>
